<svg xmlns="http://www.w3.org/2000/svg" width="17.6" height="16" viewBox="0 0 17.6 16">
  <path id="book-open" d="M17.334,4.267v10.4h-4.8a3.193,3.193,0,0,0-1.6.428V6.666a2.383,2.383,0,0,1,.182-.917,2.423,2.423,0,0,1,.521-.779,2.393,2.393,0,0,1,1.7-.7Zm-8,10.828a3.171,3.171,0,0,0-.376-.185,3.206,3.206,0,0,0-1.224-.242h-4.8V4.267h4a2.383,2.383,0,0,1,.917.182,2.422,2.422,0,0,1,.779.521,2.393,2.393,0,0,1,.7,1.7Zm8.8-12.428h-4.8a3.989,3.989,0,0,0-2.828,1.171,3.837,3.837,0,0,0-.372.429,3.95,3.95,0,0,0-.371-.429A3.989,3.989,0,0,0,6.933,2.667h-4.8a.8.8,0,0,0-.8.8v12a.8.8,0,0,0,.8.8h5.6a1.6,1.6,0,0,1,.612.121,1.6,1.6,0,0,1,.988,1.48.8.8,0,0,0,1.6,0,1.6,1.6,0,0,1,.121-.612,1.6,1.6,0,0,1,1.48-.988h5.6a.8.8,0,0,0,.8-.8v-12a.8.8,0,0,0-.8-.8Z" transform="translate(-1.333 -2.667)" fill="#888"/>
</svg>
