<svg xmlns="http://www.w3.org/2000/svg" width="16" height="15.999" viewBox="0 0 16 15.999">
  <path id="at-sign" d="M11.516,9.334a2.166,2.166,0,0,1-.165.834,2.2,2.2,0,0,1-.474.709,2.183,2.183,0,0,1-2.377.474,2.2,2.2,0,0,1-.709-.474A2.183,2.183,0,0,1,7.318,8.5a2.2,2.2,0,0,1,.474-.709,2.183,2.183,0,0,1,2.377-.474,2.2,2.2,0,0,1,.709.474,2.175,2.175,0,0,1,.639,1.543Zm.538,2.413a2.913,2.913,0,0,0,1.258,1,2.908,2.908,0,0,0,4.022-2.688V9.334a7.99,7.99,0,1,0-5.411,7.572A7.908,7.908,0,0,0,14.2,15.684a.728.728,0,0,0-.889-1.152,6.434,6.434,0,0,1-1.858,1,6.554,6.554,0,1,1,4.426-6.2v.727a1.454,1.454,0,0,1-.11.556,1.45,1.45,0,0,1-1.345.9,1.454,1.454,0,0,1-.556-.11,1.45,1.45,0,0,1-.9-1.345V6.424a.727.727,0,0,0-1.454,0,3.638,3.638,0,1,0,.389,5.482c.051-.051.1-.1.149-.158Z" transform="translate(-1.335 -1.335)" fill="#888"/>
</svg>
