<svg xmlns="http://www.w3.org/2000/svg" width="14.4" height="16" viewBox="0 0 14.4 16">
  <path id="user" d="M18.4,17.866v-1.6a4,4,0,0,0-4-4H8a4,4,0,0,0-4,4v1.6a.8.8,0,1,0,1.6,0v-1.6a2.383,2.383,0,0,1,.182-.917,2.422,2.422,0,0,1,.521-.779,2.392,2.392,0,0,1,1.7-.7h6.4a2.383,2.383,0,0,1,.917.182,2.422,2.422,0,0,1,.779.521,2.392,2.392,0,0,1,.7,1.7v1.6a.8.8,0,1,0,1.6,0Zm-3.2-11.2a3.992,3.992,0,1,0-.3,1.53,3.987,3.987,0,0,0,.3-1.53Zm-1.6,0a2.383,2.383,0,0,1-.182.917,2.422,2.422,0,0,1-.521.779,2.4,2.4,0,0,1-2.614.521A2.422,2.422,0,0,1,9.5,8.363a2.4,2.4,0,0,1-.521-2.614A2.422,2.422,0,0,1,9.5,4.969a2.4,2.4,0,0,1,2.614-.521,2.422,2.422,0,0,1,.779.521,2.392,2.392,0,0,1,.7,1.7Z" transform="translate(-3.999 -2.666)" fill="#888"/>
</svg>
